<svg width="127" height="253" viewBox="0 0 127 253" fill="none" xmlns="http://www.w3.org/2000/svg">
<path d="M80.6157 46.6908C54.2348 70.5153 84.1912 104.678 111.185 83.2706C137.562 59.4146 107.632 25.2741 80.6157 46.6908ZM105.401 76.3451C87.424 90.6741 69.1138 68.7613 86.405 53.6118C103.822 39.4993 122.967 60.5869 105.401 76.3451ZM126.366 130.022C126.128 127.776 125.441 125.6 124.346 123.624C123.251 121.648 121.77 119.913 119.991 118.52L92.1853 96.6302C91.2434 95.9148 90.0582 95.5982 88.885 95.7485C87.7119 95.8989 86.6448 96.5041 85.9138 97.4339C85.1827 98.3637 84.8463 99.5434 84.977 100.719C85.1077 101.894 85.695 102.972 86.6124 103.718L114.414 125.604C115.238 126.258 115.925 127.069 116.435 127.99C116.945 128.91 117.268 129.923 117.384 130.969C117.501 132.015 117.41 133.074 117.116 134.084C116.822 135.095 116.331 136.038 115.672 136.858L85.1786 174.087L79.9079 160.096L97.0052 139.545C97.6254 138.787 98.0898 137.915 98.3718 136.977C98.6538 136.039 98.7479 135.055 98.6486 134.081C98.5493 133.107 98.2586 132.163 97.7932 131.301C97.3278 130.44 96.6969 129.679 95.9366 129.062L77.5949 114.368C76.3552 113.381 74.8847 112.727 73.322 112.467C71.7594 112.206 70.1561 112.348 68.6636 112.879C67.1711 113.41 65.8385 114.313 64.7915 115.502C63.7445 116.691 63.0178 118.127 62.6798 119.675C59.6859 133.219 65.5203 148.22 70.5431 160.808L96.7482 230.392C97.1953 231.59 97.4 232.864 97.3505 234.141C97.3011 235.418 96.9985 236.673 96.4602 237.832C95.9219 238.991 95.1587 240.031 94.2149 240.893C93.2711 241.755 92.1655 242.421 90.9623 242.851C89.7592 243.282 88.4824 243.47 87.2061 243.403C85.9298 243.337 84.6795 243.017 83.5277 242.463C82.3759 241.91 81.3456 241.133 80.4967 240.177C79.6477 239.222 78.997 238.108 78.5823 236.899L52.9723 161.827C52.6446 160.918 52.035 160.138 51.2325 159.6C50.4299 159.063 49.4765 158.795 48.5114 158.838C47.5462 158.88 46.6198 159.229 45.8674 159.835C45.115 160.441 44.576 161.272 44.329 162.206L26.2442 236.06C25.708 238.107 24.45 239.891 22.702 241.084C20.954 242.277 18.8338 242.798 16.7322 242.551C14.6305 242.304 12.6889 241.305 11.2652 239.74C9.84145 238.174 9.0315 236.147 8.98459 234.031C8.98037 233.548 9.01961 233.065 9.10182 232.588L26.7312 125.559C26.8777 124.401 26.57 123.232 25.8726 122.297C25.1751 121.362 24.1424 120.733 22.9913 120.543C21.8402 120.354 20.6604 120.618 19.6998 121.28C18.7391 121.941 18.0725 122.95 17.8399 124.093L0.219499 231.051C-2.94567 253.297 29.0712 260.196 35.0048 238.211L49.4194 179.335L70.0426 239.789C71.2729 243.306 73.5235 246.376 76.5069 248.608C79.4903 250.84 83.0711 252.132 86.7923 252.319C90.5134 252.506 94.2059 251.58 97.3982 249.659C100.591 247.738 103.138 244.909 104.715 241.534C105.743 239.297 106.314 236.877 106.395 234.417C106.475 231.956 106.064 229.504 105.184 227.205L88.8488 183.835L122.647 142.57C124.076 140.835 125.142 138.83 125.781 136.674C126.42 134.518 126.619 132.256 126.366 130.022ZM74.0284 144.374C70.9586 137.12 70.2303 129.089 71.9453 121.401L89.0066 135.063L76.2693 150.37L74.0284 144.374Z" fill="black"/>
<path d="M24.495 111.509C25.6747 111.698 26.8813 111.413 27.8511 110.715C28.821 110.017 29.4753 108.964 29.6711 107.785L32.8227 88.4874C32.8227 87.3963 32.9444 36.979 32.8768 35.96C32.862 33.064 33.7851 30.2411 35.5081 27.9134C37.2311 25.5857 39.6614 23.8784 42.4355 23.0468L87.7308 9.37617C88.8526 9.02754 90.0341 8.91288 91.2021 9.0393C92.3701 9.16571 93.4997 9.53051 94.521 10.1111C95.9643 10.956 97.1362 12.1956 97.8988 13.684C98.6615 15.1723 98.9831 16.8476 98.8258 18.5126C98.6686 20.1776 98.039 21.763 97.0112 23.0823C95.9833 24.4016 94.6 25.3998 93.0241 25.9595L60.3669 36.997C57.2735 38.0358 54.6269 40.0986 52.8644 42.8449C51.1018 45.5912 50.3288 48.8565 50.673 52.1015C51.4756 61.8495 52.7741 73.1485 59.8259 80.4843C60.6178 81.3595 61.7214 81.8892 62.8996 81.9597C64.0778 82.0303 65.2367 81.636 66.1274 80.8616C67.0181 80.0871 67.5696 78.9943 67.6635 77.8177C67.7574 76.6412 67.3862 75.4747 66.6296 74.5688C60.8899 68.7705 60.4255 58.8015 59.641 51.114C59.5128 49.9161 59.7985 48.7104 60.4506 47.6973C61.1027 46.6843 62.082 45.925 63.2255 45.5457L95.9503 34.4856C100.344 32.9829 103.972 29.8156 106.054 25.6651C108.136 21.5146 108.506 16.7127 107.084 12.2923C105.662 7.87201 102.561 4.1866 98.4494 2.02901C94.3376 -0.128589 89.5432 -0.585936 85.0976 0.755361L39.8249 14.417C35.1955 15.8024 31.1391 18.6492 28.262 22.5316C25.385 26.414 23.842 31.1233 23.8637 35.9555V87.4008L20.7662 106.338C20.5749 107.518 20.8596 108.726 21.5578 109.696C22.256 110.666 23.3107 111.32 24.4905 111.514L24.495 111.509Z" fill="black"/>
</svg>
